<?xml version="1.0" encoding="UTF-8" standalone="no"?>
<!-- Created with Inkscape (http://www.inkscape.org/) -->
<svg
   xmlns:dc="http://purl.org/dc/elements/1.1/"
   xmlns:cc="http://creativecommons.org/ns#"
   xmlns:rdf="http://www.w3.org/1999/02/22-rdf-syntax-ns#"
   xmlns:svg="http://www.w3.org/2000/svg"
   xmlns="http://www.w3.org/2000/svg"
   xmlns:xlink="http://www.w3.org/1999/xlink"
   xmlns:sodipodi="http://sodipodi.sourceforge.net/DTD/sodipodi-0.dtd"
   xmlns:inkscape="http://www.inkscape.org/namespaces/inkscape"
   width="800"
   height="200"
   id="svg2383"
   sodipodi:version="0.32"
   inkscape:version="0.46"
   version="1.0"
   sodipodi:docname="2wycked.svg"
   inkscape:output_extension="org.inkscape.output.svg.inkscape"
   inkscape:export-filename="/home/orlando/projects/2wycked.net/2wycked.png"
   inkscape:export-xdpi="90"
   inkscape:export-ydpi="90">
  <defs
     id="defs2385">
    <linearGradient
       id="linearGradient3735">
      <stop
         style="stop-color:#f4221c;stop-opacity:1;"
         offset="0"
         id="stop3737" />
      <stop
         style="stop-color:#d40000;stop-opacity:1;"
         offset="1"
         id="stop3739" />
    </linearGradient>
    <linearGradient
       id="linearGradient3719">
      <stop
         style="stop-color:#a91202;stop-opacity:1;"
         offset="0"
         id="stop3721" />
      <stop
         style="stop-color:#ca1202;stop-opacity:1;"
         offset="1"
         id="stop3723" />
    </linearGradient>
    <linearGradient
       inkscape:collect="always"
       id="linearGradient3166">
      <stop
         style="stop-color:#000000;stop-opacity:1;"
         offset="0"
         id="stop3168" />
      <stop
         style="stop-color:#000000;stop-opacity:0;"
         offset="1"
         id="stop3170" />
    </linearGradient>
    <linearGradient
       inkscape:collect="always"
       id="linearGradient3253">
      <stop
         style="stop-color:#181d0b;stop-opacity:1;"
         offset="0"
         id="stop3255" />
      <stop
         style="stop-color:#181d0b;stop-opacity:0;"
         offset="1"
         id="stop3257" />
    </linearGradient>
    <inkscape:perspective
       sodipodi:type="inkscape:persp3d"
       inkscape:vp_x="0 : 526.18109 : 1"
       inkscape:vp_y="0 : 1000 : 0"
       inkscape:vp_z="744.09448 : 526.18109 : 1"
       inkscape:persp3d-origin="372.04724 : 350.78739 : 1"
       id="perspective2391" />
    <linearGradient
       inkscape:collect="always"
       xlink:href="#linearGradient3253"
       id="linearGradient3259"
       x1="16.854271"
       y1="152.32497"
       x2="417.63187"
       y2="152.32497"
       gradientUnits="userSpaceOnUse" />
    <radialGradient
       inkscape:collect="always"
       xlink:href="#linearGradient3166"
       id="radialGradient3172"
       cx="290.595"
       cy="129.06989"
       fx="290.595"
       fy="129.06989"
       r="268.49097"
       gradientTransform="matrix(1,0,0,0.2912857,0,91.473672)"
       gradientUnits="userSpaceOnUse" />
    <linearGradient
       inkscape:collect="always"
       xlink:href="#linearGradient3719"
       id="linearGradient3725"
       x1="305"
       y1="75.933762"
       x2="305"
       y2="128.16487"
       gradientUnits="userSpaceOnUse"
       gradientTransform="matrix(1.2607401,0,0,1.2920175,-5.1381145,7.5858617)" />
    <linearGradient
       inkscape:collect="always"
       xlink:href="#linearGradient3735"
       id="linearGradient3741"
       x1="399.45279"
       y1="-121.46225"
       x2="423.18478"
       y2="40.240494"
       gradientUnits="userSpaceOnUse"
       gradientTransform="matrix(1.1166642,5.824588e-2,-8.0868272e-2,1.7643488,33.744193,-90.079353)" />
    <inkscape:perspective
       id="perspective3301"
       inkscape:persp3d-origin="372.04724 : 350.78739 : 1"
       inkscape:vp_z="744.09448 : 526.18109 : 1"
       inkscape:vp_y="0 : 1000 : 0"
       inkscape:vp_x="0 : 526.18109 : 1"
       sodipodi:type="inkscape:persp3d" />
  </defs>
  <sodipodi:namedview
     id="base"
     pagecolor="#ffffff"
     bordercolor="#666666"
     borderopacity="1.0"
     gridtolerance="10000"
     guidetolerance="10"
     objecttolerance="10"
     inkscape:pageopacity="0.0"
     inkscape:pageshadow="2"
     inkscape:zoom="1.0646389"
     inkscape:cx="244.51641"
     inkscape:cy="112.82341"
     inkscape:document-units="px"
     inkscape:current-layer="layer6"
     showgrid="false"
     inkscape:window-width="1680"
     inkscape:window-height="1031"
     inkscape:window-x="0"
     inkscape:window-y="0"
     showguides="true"
     inkscape:guide-bbox="true" />
  <metadata
     id="metadata2388">
    <rdf:RDF>
      <cc:Work
         rdf:about="">
        <dc:format>image/svg+xml</dc:format>
        <dc:type
           rdf:resource="http://purl.org/dc/dcmitype/StillImage" />
      </cc:Work>
    </rdf:RDF>
  </metadata>
  <g
     inkscape:label="Layer 1"
     inkscape:groupmode="layer"
     id="layer1"
     style="display:inline">
    <rect
       style="opacity:1;fill:url(#linearGradient3725);fill-opacity:1;fill-rule:evenodd;stroke:none;stroke-width:10.14400005000000071;stroke-miterlimit:4;stroke-dasharray:none;stroke-opacity:1"
       id="rect2393"
       width="873.51276"
       height="446.66891"
       x="-57.368774"
       y="-20.100208" />
    <flowRoot
       xml:space="preserve"
       id="flowRoot2399"
       style="font-size:40px;font-style:normal;font-weight:normal;fill:#000000;fill-opacity:1;stroke:none;stroke-width:1px;stroke-linecap:butt;stroke-linejoin:miter;stroke-opacity:1;font-family:Bitstream Vera Sans"><flowRegion
         id="flowRegion2401"><rect
           id="rect2403"
           width="135.36044"
           height="90.913727"
           x="-119.198"
           y="168.68018" /></flowRegion><flowPara
         id="flowPara2405" /></flowRoot>    <path
       style="fill:url(#linearGradient3741);fill-opacity:1;fill-rule:evenodd;stroke:none;stroke-width:1px;stroke-linecap:butt;stroke-linejoin:miter;stroke-opacity:1"
       d="M -49.755457,174.70212 C 852.31596,141.92779 875.70571,17.420381 875.70571,17.420381 L 716.98019,-129.55813 L -59.478593,-109.19067 L -49.755457,174.70212 z"
       id="path3164" />
    <path
       style="fill:#000000;fill-opacity:1;fill-rule:evenodd;stroke:#000000;stroke-width:1px;stroke-linecap:butt;stroke-linejoin:miter;stroke-opacity:1"
       d="M -55.3902,-216.55178 L 115.96701,-272.3425 L 110.65361,-252.41724 L 248.80205,-297.58116 L 244.817,-248.43219 L 394.9206,-298.90951 L 400.234,-239.13374 L 618.08347,-336.10332 L 614.09842,-264.3724 L 784.12727,-318.83476 L 782.79892,-144.82086 L -56.718551,-140.83581 L -55.3902,-216.55178 z"
       id="path3321" />
  </g>
  <g
     inkscape:groupmode="layer"
     id="layer9"
     inkscape:label="lightnigback"
     style="display:none">
    <path
       style="fill:#000000;fill-opacity:1;fill-rule:evenodd;stroke:#000000;stroke-width:1px;stroke-linecap:butt;stroke-linejoin:miter;stroke-opacity:1;display:inline"
       d="M -119.49858,367.6431 L -108.61073,311.39068 L 90.999444,263.57626 L 88.042674,277.63706 L 230.22014,243.34575 L 232.72268,275.30771 L 386.21739,236.43145 L 382.90834,286.18335 L 617.6134,203.96005 L 617.98715,261.26295 L 813.91452,205.89753 L 827.38495,363.83814 L -119.49858,367.6431 z"
       id="path3342" />
  </g>
  <g
     inkscape:groupmode="layer"
     id="layer7"
     inkscape:label="lightning"
     style="display:none">
    <g
       style="display:inline"
       id="g3323"
       transform="matrix(1.1261783,-1.9994279e-2,5.2400567e-3,1.1045099,-96.47946,2.7888177)">
      <path
         sodipodi:nodetypes="ccccccccccccccccccccc"
         id="path3319"
         d="M -13.947679,262.31527 L 157.40952,210.22084 L 154.75282,231.5322 L 291.57292,180.47734 L 292.90126,229.95358 L 437.69146,181.01638 L 441.67651,237.05737 L 663.51104,135.17866 L 663.51104,200.34484 L 833.53989,126.09198 L 854.7935,179.303 L 634.28733,248.60824 L 630.30227,179.88054 L 420.42291,266.33883 L 421.75125,207.31387 L 272.97601,252.84356 L 274.30436,205.23471 L 140.14097,248.1077 L 142.79767,227.04661 L -20.58943,277.31216 L -13.947679,262.31527 z"
         style="opacity:1;fill:#ffe680;fill-opacity:1;fill-rule:evenodd;stroke:none;stroke-width:1px;stroke-linecap:butt;stroke-linejoin:miter;stroke-opacity:1;display:inline" />
      <path
         sodipodi:nodetypes="ccccccccccccccccccccc"
         id="path3307"
         d="M -5.3134035,251.79434 L 166.04379,199.69991 L 163.38709,221.01127 L 300.20719,169.95641 L 301.53553,219.43265 L 446.32573,170.49545 L 450.31078,226.53644 L 672.14531,124.65773 L 672.14531,189.82391 L 842.17416,115.57105 L 863.42777,168.78207 L 642.9216,238.08731 L 638.93654,169.35961 L 429.05718,255.8179 L 430.38552,196.79294 L 281.61028,242.32263 L 282.93863,194.71378 L 148.77524,237.58677 L 151.43194,216.52568 L -11.955154,266.79123 L -5.3134035,251.79434 z"
         style="opacity:1;fill:#c06387;fill-opacity:1;fill-rule:evenodd;stroke:none;stroke-width:1px;stroke-linecap:butt;stroke-linejoin:miter;stroke-opacity:1" />
    </g>
  </g>
  <g
     inkscape:groupmode="layer"
     id="layer5"
     inkscape:label="textpath"
     style="display:none">
    <path
       style="fill:none;fill-rule:evenodd;stroke:#000000;stroke-width:1px;stroke-linecap:butt;stroke-linejoin:miter;stroke-opacity:1;display:inline"
       d="M -20.64474,73.273831 C 82.547265,71.711049 533.19801,20.500271 556.38863,-18.675617"
       id="path3211"
       sodipodi:nodetypes="cs" />
  </g>
  <g
     inkscape:groupmode="layer"
     id="layer2"
     inkscape:label="asdf"
     style="display:none">
    <text
       xml:space="preserve"
       style="font-size:150.88850403px;font-style:normal;font-weight:normal;fill:#ffffff;fill-opacity:1;fill-rule:nonzero;stroke:#000000;stroke-width:0.69999999;stroke-linecap:round;stroke-linejoin:round;stroke-miterlimit:4;stroke-dasharray:none;stroke-opacity:1;font-family:Bitstream Vera Sans"
       x="115.66286"
       y="158.89473"
       id="text3697"><tspan
         sodipodi:role="line"
         id="tspan3699"
         x="115.66286"
         y="158.89473"
         style="font-style:normal;font-variant:normal;font-weight:normal;font-stretch:normal;fill:#ffffff;fill-rule:nonzero;stroke:#000000;stroke-width:0.69999999;stroke-linecap:round;stroke-linejoin:round;stroke-miterlimit:4;stroke-dasharray:none;stroke-opacity:1;font-family:American Text;-inkscape-font-specification:American Text">2 Wycked</tspan></text>
  </g>
  <g
     inkscape:groupmode="layer"
     id="layer4"
     inkscape:label="bornder"
     style="display:none"
     sodipodi:insensitive="true">
    <rect
       style="opacity:1;fill:none;fill-opacity:1;fill-rule:evenodd;stroke:#00ff00;stroke-width:1.41673446;stroke-linecap:round;stroke-linejoin:round;stroke-miterlimit:4;stroke-dasharray:1.41673441, 2.83346881;stroke-dashoffset:0;stroke-opacity:1"
       id="rect3185"
       width="801.07855"
       height="202.05455"
       x="-0.041632805"
       y="-0.9130041" />
  </g>
  <g
     inkscape:groupmode="layer"
     id="layer8"
     inkscape:label="2wycked.net"
     style="display:inline">
    <path
       style="font-size:147.23985291px;font-style:normal;font-weight:normal;fill:#ffffff;fill-opacity:1;fill-rule:nonzero;stroke:#000000;stroke-width:0;stroke-linecap:square;stroke-linejoin:miter;stroke-miterlimit:1.29999995;stroke-opacity:1;display:inline;font-family:Bitstream Vera Sans"
       d="M 11.146307,152.51418 L 73.824341,150.48595 L 85.342503,131.83619 L 37.277609,133.39154 L 78.031022,97.582241 L 75.916062,58.296084 L 36.662498,30.234612 L 7.3919719,53.291113 L 26.213696,68.748157 L 48.311418,50.050837 L 50.790754,96.105398 L 10.528453,141.03732 L 11.146307,152.51418 M 88.778415,28.482749 L 111.67612,46.778299 L 132.32883,25.617144 L 88.778415,28.482749 M 100.34884,105.74804 L 117.90947,104.59256 L 120.76098,132.63046 L 138.30875,146.99248 L 160.78639,145.51346 L 172.08996,133.24303 L 186.42494,143.82645 L 206.9709,142.47454 L 233.27717,116.06472 L 223.46862,19.620172 L 207.29994,36.200723 L 210.85311,71.138019 L 194.37445,86.408961 L 187.80556,21.819013 L 161.00942,52.103282 L 163.21895,73.828996 L 146.88606,88.794805 L 140.40673,25.08562 L 113.28923,55.686593 L 115.06582,73.155243 L 98.673205,87.53386 L 116.05824,86.389929 L 116.46134,90.353402 L 100.34884,105.74804 M 164.58891,85.561074 L 147.29194,101.47697 L 146.41111,92.816055 L 163.73794,77.193736 L 164.58891,85.561074 M 169.15728,130.48044 L 151.24541,131.65905 L 148.48349,104.50191 L 164.93227,88.937365 L 169.15728,130.48044 M 195.40513,126.09334 L 188.29559,120.50226 L 179.57687,34.773783 L 185.44728,28.180849 L 195.40513,126.09334 M 212.35388,82.418144 L 195.05692,98.334054 L 194.17609,89.673126 L 211.50291,74.050816 L 212.35388,82.418144 M 216.92225,127.33752 L 198.65917,128.53923 L 195.89726,101.38209 L 212.6674,85.500854 L 216.92225,127.33752 M 147.99137,129.21316 L 140.88182,123.62208 L 132.17804,38.040394 L 138.10817,32.034638 L 147.99137,129.21316 M 251.95061,139.07413 L 270.52898,137.53405 L 286.53982,124.06561 L 290.14479,152.63913 L 266.30839,154.61509 L 257.49313,168.96767 L 283.08221,166.84643 L 307.48382,138.46834 L 295.98489,47.32614 L 279.22785,64.706088 L 286.28989,120.68088 L 268.93838,122.11926 L 259.87975,50.319133 L 242.94744,67.713598 L 251.95061,139.07413 M 325.20027,132.92535 L 349.70883,130.67322 L 365.22064,114.72048 L 341.76245,116.8761 L 333.52068,57.597036 L 348.76667,71.612812 L 359.06318,58.955836 L 342.67733,43.117711 L 316.69395,71.743502 L 325.20027,132.92535 M 374.78599,128.40204 L 393.66537,126.47837 L 383.10878,57.633168 L 391.62503,49.491286 L 408.81477,63.178787 L 393.74549,78.3718 L 405.49365,86.67567 L 411.32107,124.6794 L 429.85082,122.79136 L 436.63685,107.99699 L 427.8964,108.88757 L 423.43617,79.800102 L 406.9995,68.708016 L 422.06877,53.514995 L 400.60739,37.442162 L 382.92048,54.089506 L 375.54657,6.0001857 L 358.67096,23.307128 L 374.78599,128.40204 M 445.11632,121.20329 L 474.76715,117.76693 L 488.15846,100.59245 L 461.64713,103.66495 L 459.32083,90.246256 L 488.49213,54.281368 L 456.23373,31.387268 L 433.66181,55.130816 L 445.11632,121.20329 M 475.16375,66.687424 L 458.73926,86.891584 L 451.20406,43.426684 L 475.16375,66.687424 M 508.82919,113.84599 L 526.72851,111.41436 L 540.31002,97.324155 L 542.71626,109.24241 L 562.52717,106.55109 L 566.28211,90.659891 L 555.50776,92.123586 L 534.35042,-12.669855 L 520.83219,3.5023844 L 526.2022,30.100441 L 509.96371,24.8399 L 494.80255,44.37128 L 508.82919,113.84599 M 524.3741,97.099761 L 514.60242,48.700019 L 526.64237,32.28061 L 539.31917,95.069472 L 524.3741,97.099761"
       id="text3160" />
    <text
       xml:space="preserve"
       style="font-size:133.96098328px;font-style:normal;font-weight:normal;fill:#ff8080;fill-opacity:1;stroke:#ff8080;stroke-width:3.5;stroke-linecap:butt;stroke-linejoin:miter;stroke-miterlimit:4;stroke-dasharray:none;stroke-opacity:1;display:inline;font-family:Bitstream Vera Sans"
       x="566.27808"
       y="101.99203"
       id="text2409"><tspan
         sodipodi:role="line"
         id="tspan2411"
         x="566.27808"
         y="101.99203"
         style="font-style:normal;font-variant:normal;font-weight:bold;font-stretch:normal;fill:#ff8080;fill-opacity:1;stroke:#ff8080;stroke-width:3.5;stroke-miterlimit:4;stroke-dasharray:none;stroke-opacity:1;font-family:Scriptina;-inkscape-font-specification:Scriptina Bold">.net</tspan></text>
  </g>
  <g
     inkscape:groupmode="layer"
     id="layer6"
     inkscape:label="raster"
     style="display:inline">
    <image
       y="-290.77927"
       x="-323.43518"
       id="image3303"
       height="786.88879"
       width="1250.1973"
       sodipodi:absref="/home/orlando/loranda/2wycked.jpg"
       xlink:href="/home/orlando/loranda/2wycked.jpg"
       style="opacity:1;fill:#3874b2;fill-opacity:1;display:inline" />
  </g>
</svg>
